<svg viewBox="0 0 1920 1080" xmlns="http://www.w3.org/2000/svg"><path d="m0 0h1920v740.19h-1920z" fill="#eed7a4"/><g fill-rule="evenodd"><path d="m1920 734.4c-14.36-3.23-28.87-6.44-43.74-9.69-12.83-2.81-17.27-10.05-28.4-13.55-14.9-4.69-36.79-9-53-12.45-16.94-3.56-36.22 1.45-53.41-2.89-11.21-2.83-12.18-9.89-21.7-13.66-26.42-10.44-62.08-21.85-94-25.36-19.07-2.11-43.65 9.57-77.3 5.89-13.77-1.5-30.54-15.91-44.76-13.75-17 2.59-29.9 20.71-51.2 24-9.18 1.41-15.59-2.82-24.67-2.46-39.94 1.6-96.34 8.94-123.21 27.77l-4.36 1.16c-16.41-8.39-11.06-24.58-21.39-35.27-5.36-5.54-70.47-39.9-80.45-40.1-20-.4-22.13 11.79-36.7 15.84-11.29 3.14-23.25-1.25-34.24 1.53-12.1 3.08-13.35 10.71-23.28 14.76-22.78 9.28-51.35 15.36-73.63 24.77-9.27 3.91-10 10.6-18 14.16-9.52 4.25-25.23 3.65-35.06 7.83-5.48 2.33-11.82 7.51-19.56 7.36-6.74-.14-62.8-5-68.44-6.23-9-2-11.32-7-18.87-9.81-10.92-4.12-49.78-11-61.93-11.47-12.94-.47-23.91 8-35.71 7.29-4.12-.24-6.85-3.59-10.62-4.46a568.79 568.79 0 0 0 -56.3-9.38c-6.66-.81-14.41 8.16-20.68 5.84-20-7.4-44.54-23.16-61.31-28.44-15.27-4.81-35.85-5.86-52-9.92-11.84-3-28.31-12.84-42.53-11.59-6.8.6-13.26 8.33-19.79 10.4-18.92 6-44.18 5.93-63 13.8-10.06 4.19-13.16 11.57-24.48 15.09-6.81 2.12-14.45 1.21-21.37 2.94-8.41 2.1-12.77 7.2-21.95 9-10.25 2-23.18 1.17-32.31 4.95-9 3.72-6.16 10.23-11.61 15s-38.17 17-48.31 16.72c-62.45-1.44-56.64-15.82-95.59-32-9.07-3.76-22-3.29-30.29-7.55-5.76-3-2.86-8.49-9.34-11.27-14.7-6.32-32.13-.73-45.24-5.53-21.07-7.71-33.17-25.07-57-29.7-9.86-1.92-35.43.73-49.25-.59v277.15c32.15 1.76 63.72 3.9 96.83 3.29 48.6-.88 115.19-19.56 159.69-19 30.4.4 70.24-1.24 100 2.84 12.93 1.77 19.14 8.37 31.4 10.47 28.94 5 64.43 5.64 94.5 8.26 20.78 1.81 43.29 4 64.32 3.63 19.92-.31 38.14-2.77 58.15-1l34 1.79c41.82 2 37.56-37.36 81.47-36.26 35.28.89 72.26 7.77 107.17 7.22 14.7-.23 27.92-4.94 42.48-5.8 32.33-1.92 72.23-2.44 104.82-2.62 43.15-.24 85.82 3.2 129.31 1.66 42-1.49 85.11-11.67 126.71-12.17 49.33-.58 103 8.9 153.81 9.18 37.61.21 69.86-12.07 106.66-14.07 19.73-1.07 38 3.17 57.61 2.67 42.57-1.06 174.16-8.07 216.25-14.08 16-2.29 84.2-14.09 154.84-27.71z" fill="#c5dce4"/><path d="m1394.23 856.77c-7.76-3.91-8-10.36-15.86-13.8-13-5.68-93.16-19.72-109.63-18.38-14.38 1.16-30.39 6.86-45 2.74-9.88-2.78-10-8.45-16.78-12.55-28.86-17.54-88.34-30.71-131.89-27.95-16.18 1-120 52.56-143.27 58.72-8.65 2.29-44.84 4-55 4.44-21.51 1-73.44-8.75-90-14.87-10.7-4-15.85-10.61-27.59-14-12.12-3.44-27-2.26-38.89-6.45-7.09-2.51-7.13-8.28-13.71-10.29-10.33-3.15-23.39-2.5-34.14-5.41-13.87-3.77-27.39-19.54-45.84-18.45-41.85 2.48-45.79 29.76-76.43 39.53-12.05 3.84-27.56 2.52-39 6.34-21.23 7.12-25.83 19.24-54.79 21.06-12.83.81-55.2-7.19-57.14-6.77-12.63 2.76-15.78 11.08-27.62 14.49-9.18 2.64-20.48.15-28.72 3.49-12.36 5-14.71 15.34-31.29 17.78-24.3 3.57-75.89-6.24-97.58-13.79-8.46-2.94-12.93-8.58-23.26-10-31.23-4.19-62.8 2.16-95-3.22-16.34-2.65-23.8-11.57-42.1-12.19-18.49-.63-33.46 28.86-49.37 35-1.5.58-2.94 1.06-4.33 1.48v137c7.19-.55 14.57-.86 22.32-.71 28.88.53 54.94 6 83.22 7.11 16.46.67 31.61-3.24 47.76-3.18 35.94.14 70 4.31 106.88 2.81 15.13-.62 28.92-5 44.33-5 22.76 0 45.39 4.4 67.52 4 44.8-.78 90.31-7.48 134.3-9.72 15.76-.81 31.55 2.32 47.22.59 27.78-3.07 54.75-10.29 83.33-12.15 21.89-1.43 38.44 7 59.17 8 30.33 1.32 66.6-1.89 96.77-4 19.76-1.37 31.61-11.32 50.13-13.17 12.33-1.24 24.6 2.14 37.13 1.67 17.4-.66 34.39-4.94 51.81-5.93 43.05-2.45 83.41-.37 126.34 1.43 45.66 1.92 90.43-6.91 135.21-8.75 11.13-.46 21.67 3.88 32.48 2.46 24.89-3.25 45.77-13.61 71.21-16.29 42.59-4.48 77.79 2.79 116-13.51 16.16-6.9 13.89-21.67 26.54-30.29 7.31-5 62-45.87 61.64-48.52-2.31-16.68-83.31 1.19-107.08-10.8z" fill="#90b8ca"/><path d="m1920 816.82a31.07 31.07 0 0 0 -10.83-3.61c-31.23-4.18-62.8 2.17-95-3.21-16.41-2.74-23.89-11.66-42.17-12.29-18.49-.62-33.46 28.87-49.37 35.06-29.45 11.45-37.41-10-60.12-7.92-17.39 1.61-22.32 15.89-42.69 18.6-25.41 3.39-48.49-7.18-70.43-6.77-16 .31-13.41 15.44-35.11 12.49-14.51-2-31.23-15.63-43-16.3-15.78-.91-12.82 13.31-26.17 14.75-11.38 1.23-39.1 4.38-50.32 3.46-10.35-.85-16-6.08-27.51-5.94-10.53.12-19.73 3.94-30.32 3.55-11.53-.43-17.79-7.81-27.92-10-47.42-10.16-120-12.39-146.23 17.63l-4.31 5.13c-12.8 7.09-22.43 14.92-38.84 19.91-11.06 3.35-25.43 3.83-35 8.38-22 10.44-32.47 28-54.8 38.63-9.31 4.43-26.14 7.18-29 14.52a3.16 3.16 0 0 0 .22 3.47c4.63 6.07 87.63 8.45 99.31 5.62 54.42-13.17 111.64-9.8 166.92-.35 15.76 2.69 29.67 8.52 46.21 9.74 43.85 3.24 91.79-8.89 135.54-9.31 43.09-.41 101.51 21.57 142.45 22.83 20 .61 46.76 3.8 66.28 2.69 28.51-1.63 53-7.65 82.83-7.09 28.88.53 54.94 6 83.22 7.11 16.46.67 31.61-3.24 47.76-3.18 16.37.06 32.35 1 48.38 1.78z" fill="#90b8ca"/><path d="m1798.35 963.86c-23.08-.79-42.89-6.91-65.38-8.91-22.11-2-44.83-1.3-66.84-3.7-20-2.19-38.6-7.21-58.82-8.71-25.6-1.9-51.4-1.34-76.88-4-33.89-3.61-66.52-11.31-100.49-14.11-18.79-1.54-36.91 2-55.62 2.1-61.45.27-129.84.35-189.61-7.79-26-3.55-45.5-15.12-70.94-19.7-31.55-5.67-60.75.22-91.11-3.29-33.95-3.93-61.25-17.44-97.06-20.61-38.54-3.4-80 6.79-119.46 4.53-43.8-2.49-81.31-11-127-8-35.46 2.38-67.63 15.15-100.69 21-20.13 3.55-39.72 1.72-58.16 8.57l-6.63 3.22c-14.82-5.82-23.4-11.85-59.43-5.91-23.82 3.93-29.32 18-51.07 23.15-30.41 7.21-63.9 15.07-95.68 20.1-20.61 3.26-40 1.21-59.79 7-70.28 20.66-129.86 51.14-210.18 61.17-12.59 1.57-25 1.39-37.53 1.2v68.83h1920.02v-125.37c-39.38 6.05-79.25 10.68-121.65 9.23z" fill="#1d2b36"/></g><circle cx="1337.55" cy="369.6" fill="#fff" r="173.45" transform="matrix(.9888865 -.14867243 .14867243 .9888865 -40.09 203)"/><path d="m1080.35 274.79c-17.81-3.61-41-1.54-59.51-1.82-82.17-1.22-159.5.42-241.59 5-20.49 1.14-39.32 6.48-59.92 7.26-53.25 2-107.53.11-160.53 2.85-49.95 2.58-99.13 8.79-148.86 11.28-72.64 3.64-126.38 2.58-199.94 11.31l-44.82-2.57c-37 1.84-69.2 3.5-59.31 25.41 1.51 3.35-2.1 9.94 4 12.13 38.71 13.84 74.32-6.56 111.71-9 22.56-1.5 64.24 1.51 87 3.59 40.81 3.73-28.14 16.33-8.34 24.37 43.42 17.63 108.62 14.72 160.05 17.15 53.62 2.54 98.18-12.33 148.85-18.28 23.4-2.76 47.11-.05 70.66-1.85 75-5.7 198.91-18.32 271.33-12.6 38.4 3 80.15 7.4 118.79 7.5 33.71.1 212-18.52 213.88-32.66 3.12-22.94-146.77-6.81-179.82-20.6-19.12-8.05 5.1-22.64-23.63-28.47z" fill="#f8efdb" fill-rule="evenodd"/><path d="m1920 207c-50.08-3.44-102.3-3.73-116.29-3.79l-48.12 1.75c-27.15 1.43-53.44 7.7-80.51 8.48-34.09 1-68.62-2.75-102.61-3.44-42.35-.86-274.29 21.37-241.19 40.72 21.37 12.5 58 6.43 84.49 3.87 89.8-8.65 174.66 14.13 262.84 14.39 33.6.1 72.89-8.53 106.33-11.6 18.88-1.73 79.8-1.78 135.06-4.09z" fill="#f8efdb" fill-rule="evenodd"/><path d="m0 52.78v104.22c3.57.37 7.23.61 11 .68 66.76 1.18 132.23-25.82 201-29.29 200.56-10.14 420.33 8 617.29-11.12 92.81-9 172.72-38.23 266.61-47.34 213.85-20.73 475.6 12.83 669.35-46 10.4-3.16 31.16-8.11 27.11-16-1.45-2.81-5.27-5.46-11.12-7.95h-1214.24c-205.11 14.33-412 32.24-567 52.8z" fill="#f8efdb" fill-rule="evenodd"/></svg>