<svg xmlns="http://www.w3.org/2000/svg" viewBox="0 0 400 172.59"><defs><style>.cls-1{fill:#c6dde5;}.cls-1,.cls-2,.cls-3{fill-rule:evenodd;}.cls-2{fill:#92b9cb;}.cls-3{fill:#1d2b37;}</style></defs><g id="Layer_2" data-name="Layer 2"><g id="Layer_1-2" data-name="Layer 1"><path class="cls-1" d="M400,41.78c-3-1.22-6-2.43-9.11-3.66-2.68-1.07-3.6-3.81-5.92-5.13a85.31,85.31,0,0,0-11.05-4.71c-3.52-1.35-7.54.54-11.12-1.1-2.34-1.07-2.54-3.74-4.52-5.17-5.51-4-12.94-8.27-19.57-9.6-4-.79-9.1,3.62-16.11,2.23-2.87-.57-6.36-6-9.33-5.2-3.54,1-6.22,7.84-10.66,9.07-1.91.53-3.25-1.07-5.14-.93-8.32.61-20.07,3.38-25.67,10.51l-.91.44c-3.42-3.17-2.3-9.3-4.45-13.35C265.32,13.09,251.75.08,249.68,0c-4.18-.15-4.61,4.47-7.65,6-2.35,1.19-4.85-.47-7.13.58-2.52,1.16-2.79,4.05-4.85,5.58-4.75,3.52-10.7,5.82-15.34,9.38-1.94,1.48-2.08,4-3.75,5.36-2,1.61-5.25,1.38-7.3,3-1.14.88-2.47,2.84-4.08,2.79-1.4,0-13.08-1.88-14.26-2.36-1.88-.77-2.35-2.63-3.93-3.71C179.12,25,171,22.4,168.49,22.24c-2.69-.18-5,3-7.44,2.76-.86-.09-1.42-1.37-2.21-1.69a71.17,71.17,0,0,0-11.73-3.55c-1.39-.31-3,3.09-4.31,2.21-4.16-2.8-9.28-8.77-12.77-10.77-3.18-1.82-7.47-2.21-10.84-3.75-2.47-1.13-5.9-4.86-8.86-4.39-1.42.23-2.77,3.15-4.13,3.94-3.94,2.28-9.2,2.24-13.13,5.22C91,13.81,90.33,16.6,88,17.93c-1.42.8-3,.46-4.45,1.11-1.75.8-2.66,2.73-4.57,3.41-2.14.76-4.83.45-6.73,1.88S70.93,28.2,69.8,30s-7.95,6.42-10.07,6.33c-13-.55-11.8-6-19.91-12.1-1.89-1.43-4.59-1.25-6.31-2.86-1.2-1.12-.6-3.21-1.95-4.27-3.06-2.39-6.69-.28-9.42-2.09-4.39-2.92-6.91-9.49-11.88-11.24-2-.73-7.38.27-10.26-.22V108.45c6.7.66,13.27,1.47,20.17,1.24,10.13-.33,24-7.4,33.27-7.18,6.34.15,14.64-.48,20.83,1.07,2.7.67,4,3.17,6.55,4,6,1.88,13.42,2.14,19.68,3.13,4.33.68,9,1.5,13.4,1.37,4.15-.12,7.95-1,12.12-.39l7.08.68c8.71.76,7.82-14.14,17-13.73,7.35.34,15.06,3,22.33,2.74,3.06-.09,5.81-1.87,8.85-2.2,6.73-.73,15-.92,21.83-1,9-.09,17.89,1.21,26.95.63,8.74-.57,17.73-4.42,26.39-4.61,10.28-.22,21.45,3.37,32.05,3.48,7.83.08,14.55-4.57,22.22-5.33,4.11-.41,7.92,1.2,12,1,8.87-.4,36.28-3,45.05-5.33,3.34-.87,17.54-5.33,32.26-10.49Z"/><path class="cls-2" d="M290.47,88.1c-1.62-1.48-1.67-3.92-3.31-5.22-2.71-2.15-19.41-7.47-22.84-7-3,.44-6.33,2.6-9.37,1-2.06-1-2.09-3.2-3.5-4.75-6-6.64-18.4-11.62-27.47-10.58-3.37.39-25,19.89-29.85,22.22-1.81.87-9.34,1.51-11.46,1.68-4.49.38-15.3-3.31-18.75-5.62-2.23-1.5-3.3-4-5.75-5.28s-5.63-.86-8.1-2.45c-1.48-1-1.49-3.13-2.86-3.89-2.15-1.19-4.87-.94-7.11-2.05-2.89-1.43-5.71-7.4-9.55-7-8.72.94-9.54,11.26-15.92,15-2.51,1.45-5.74,1-8.12,2.4-4.42,2.69-5.38,7.28-11.41,8-2.68.31-11.51-2.72-11.91-2.56-2.63,1-3.29,4.19-5.75,5.48-1.91,1-4.27.06-6,1.32-2.57,1.9-3.06,5.81-6.51,6.73-5.07,1.36-15.81-2.36-20.33-5.21-1.77-1.12-2.7-3.25-4.85-3.78C33.25,85,26.68,87.39,20,85.36c-3.42-1-5-4.42-8.78-4.65S4.22,91.63.9,94a9.27,9.27,0,0,1-.9.56v51.84a27.25,27.25,0,0,1,4.65-.26c6,.2,11.45,2.25,17.34,2.69,3.43.25,6.58-1.23,10-1.21,7.48,0,14.58,1.63,22.26,1.07,3.16-.24,6-1.9,9.24-1.89,4.74,0,9.46,1.66,14.07,1.52,9.33-.3,18.81-2.83,28-3.68,3.28-.31,6.57.88,9.83.22,5.79-1.16,11.41-3.89,17.36-4.6,4.56-.54,8,2.67,12.33,3,6.32.5,13.88-.71,20.16-1.5,4.12-.51,6.59-4.28,10.45-5,2.56-.47,5.12.81,7.73.63,3.62-.25,7.16-1.87,10.79-2.24,9-.93,17.38-.14,26.32.54,9.52.73,18.84-2.62,28.17-3.31,2.32-.18,4.52,1.47,6.77.93,5.19-1.23,9.54-5.15,14.83-6.17,8.88-1.69,16.21,1.06,24.17-5.11,3.36-2.61,2.89-8.2,5.53-11.46,1.52-1.89,12.91-17.36,12.84-18.37C312.3,85.87,295.42,92.64,290.47,88.1Z"/><path class="cls-3" d="M374.66,128.63c-4.81-.3-8.94-2.62-13.62-3.37s-9.34-.49-13.93-1.4c-4.16-.83-8-2.73-12.25-3.3-5.34-.72-10.71-.5-16-1.53-7.06-1.37-13.86-4.28-20.94-5.34-3.91-.58-7.69.76-11.58.79-12.81.1-27.05.14-39.51-3-5.42-1.34-9.47-5.72-14.77-7.45-6.58-2.15-12.66.08-19-1.25-7.07-1.48-12.76-6.6-20.22-7.8-8-1.28-16.66,2.57-24.88,1.72-9.13-1-16.94-4.19-26.46-3-7.39.9-14.09,5.73-21,8-4.19,1.34-8.27.64-12.11,3.24L107,106.13c-3.09-2.21-4.88-4.49-12.38-2.24-5,1.49-6.11,6.81-10.64,8.76a173.64,173.64,0,0,1-19.94,7.61c-4.29,1.23-8.33.46-12.45,2.66C37,130.74,24.55,142.27,7.82,146.07a30.75,30.75,0,0,1-7.82.45v26.07H400V125.14C391.8,127.43,383.49,129.18,374.66,128.63Z"/></g></g></svg>