<svg viewBox="0 0 417.79 367.69" xmlns="http://www.w3.org/2000/svg" xmlns:xlink="http://www.w3.org/1999/xlink"><linearGradient id="a" gradientUnits="userSpaceOnUse" x1="204.3" x2="145.2" y1="83.18" y2="25.21"><stop offset="0" stop-color="#17f8d7"/><stop offset="1" stop-color="#6300ee"/></linearGradient><linearGradient id="b" x1="312.63" x2="148.96" xlink:href="#a" y1="177.04" y2="436.18"/><linearGradient id="c" gradientUnits="userSpaceOnUse" x1="301.82" x2="291.02" y1="218.81" y2="268.82"><stop offset="0" stop-color="#17f8d7"/><stop offset="1" stop-color="#0086f9"/></linearGradient><linearGradient id="d" gradientUnits="userSpaceOnUse" x1="274.09" x2="263.59" y1="309.66" y2="235.74"><stop offset="0" stop-color="#6300ee"/><stop offset="1" stop-color="#4500c9"/></linearGradient><linearGradient id="e" x1="406.58" x2="241.25" xlink:href="#a" y1="385.36" y2="231.84"/><linearGradient id="f" x1="222.81" x2="220.19" xlink:href="#d" y1="115.76" y2="73.77"/><linearGradient id="g" x1="301.21" x2="176.18" xlink:href="#a" y1="185.95" y2="75.7"/><path d="m224.15 13.62c-10.49-18.16-27.65-18.16-38.15 0l-40.55 70.27c-10.49 18.16-2.64 38 17.44 44l122.39 40.8c19.73 7.11 27.3-1.93 16.81-20.1z" fill="url(#a)"/><path d="m240.5 181.54c-41.45-14-88.66-28-88.66-28-20.11-5.93-45.16 4.08-55.64 22.24l-91.72 158.88c-10.49 18.17-1.91 33 19.06 33h38.67c21 0 47.81-14.17 59.64-31.5l14.67-21.5c11.83-17.33 38.35-28.24 58.94-24.24l5.7 1.1c20.59 4 50.38 18.53 66.2 32.3l21.64 18.84c15.83 13.77 45.93 25 66.91 25h38.38c21 0 29.56-14.86 19.07-33l-48.86-84.61c-10.49-18.17-35.31-38.57-55.17-45.34-.04 0-33.58-11.42-68.83-23.17z" fill="url(#b)"/><path d="m195.46 290.45 5.7 1.1c20.59 4 50.38 18.53 66.2 32.3l21.64 18.81c15.83 13.77 45.93 25 66.91 25h38.38c21 0 29.56-14.86 19.07-33l-48.86-84.61c-6.06-10.5-16.9-21.73-28.8-30.65-122.52-65.66-199.14 95.29-199.14 95.29 11.79-17.33 38.31-28.24 58.9-24.24z" fill="url(#c)"/><path d="m195.46 290.45 5.7 1.1c20.59 4 50.38 18.53 66.2 32.3l21.64 18.81c15.83 13.77 45.93 25 66.91 25h38.38c21 0 29.56-14.86 19.07-33l-48.86-84.61c-6.06-10.5-16.9-21.73-28.8-30.65-128.1-55.1-199.14 95.29-199.14 95.29 11.79-17.33 38.31-28.24 58.9-24.24z" fill="url(#d)"/><path d="m195.46 290.45 5.7 1.1c20.59 4 50.38 18.53 66.2 32.3l21.64 18.81c15.83 13.77 45.93 25 66.91 25h38.38c21 0 29.56-14.86 19.07-33l-48.86-84.61c-6.06-10.5-16.9-21.73-28.8-30.65-82.86-22.61-130.41 43.15-140.24 71.05z" fill="url(#e)"/><path d="m162.89 127.92 122.39 40.8c19.73 7.11 27.3-1.93 16.81-20.1l-31.32-54.25c-68.64-69.64-125.32-10.48-125.32-10.48-10.45 18.16-2.64 37.98 17.44 44.03z" fill="url(#f)"/><path d="m162.89 127.92 122.39 40.8c19.73 7.11 27.3-1.93 16.81-20.1l-31.32-54.25c-86.69-55-127.96 27.5-107.88 33.55z" fill="url(#g)"/></svg>