<svg height="470pt" viewBox="0 0 470 470" width="470pt" xmlns="http://www.w3.org/2000/svg"><path d="m235 104.605469c-72.015625 0-130.394531 58.378906-130.394531 130.394531s58.378906 130.394531 130.394531 130.394531 130.394531-58.378906 130.394531-130.394531c-.082031-71.980469-58.414062-130.3125-130.394531-130.394531zm0 240.789062c-60.96875 0-110.394531-49.425781-110.394531-110.394531s49.425781-110.394531 110.394531-110.394531 110.394531 49.425781 110.394531 110.394531c-.070312 60.941406-49.453125 110.324219-110.394531 110.394531zm0 0"/><path d="m245 61v-51c0-5.523438-4.476562-10-10-10s-10 4.476562-10 10v51c0 5.523438 4.476562 10 10 10s10-4.476562 10-10zm0 0"/><path d="m235 399c-5.523438 0-10 4.476562-10 10v51c0 5.523438 4.476562 10 10 10s10-4.476562 10-10v-51c0-5.523438-4.476562-10-10-10zm0 0"/><path d="m460 225h-51c-5.523438 0-10 4.476562-10 10s4.476562 10 10 10h51c5.523438 0 10-4.476562 10-10s-4.476562-10-10-10zm0 0"/><path d="m71 235c0-5.523438-4.476562-10-10-10h-51c-5.523438 0-10 4.476562-10 10s4.476562 10 10 10h51c5.523438 0 10-4.476562 10-10zm0 0"/><path d="m365.257812 118.882812 35.472657-35.472656c3.878906-3.910156 3.863281-10.21875-.03125-14.109375-3.890625-3.894531-10.199219-3.910156-14.109375-.03125l-35.472656 35.472657c-2.542969 2.519531-3.546876 6.210937-2.625 9.675781.925781 3.460937 3.628906 6.164062 7.089843 7.089843 3.464844.921876 7.15625-.082031 9.675781-2.625zm0 0"/><path d="m104.742188 351.117188-35.472657 35.472656c-2.546875 2.523437-3.546875 6.214844-2.625 9.675781s3.628907 6.167969 7.089844 7.089844 7.152344-.078125 9.675781-2.625l35.472656-35.472657c2.542969-2.519531 3.546876-6.210937 2.625-9.675781-.925781-3.460937-3.628906-6.164062-7.089843-7.089843-3.464844-.921876-7.15625.082031-9.675781 2.625zm0 0"/><path d="m365.257812 351.117188c-2.519531-2.542969-6.210937-3.546876-9.675781-2.625-3.460937.925781-6.164062 3.628906-7.089843 7.089843-.921876 3.464844.082031 7.15625 2.625 9.675781l35.472656 35.472657c3.910156 3.878906 10.21875 3.863281 14.109375-.03125 3.894531-3.890625 3.910156-10.199219.03125-14.109375zm0 0"/><path d="m104.742188 118.882812c2.519531 2.542969 6.210937 3.546876 9.675781 2.625 3.460937-.925781 6.164062-3.628906 7.089843-7.089843.921876-3.464844-.082031-7.15625-2.625-9.675781l-35.472656-35.472657c-3.910156-3.878906-10.21875-3.863281-14.109375.03125-3.894531 3.890625-3.910156 10.199219-.03125 14.109375zm0 0"/></svg>